<?xml version="1.0" encoding="utf-8"?>
<!-- Generator: Adobe Illustrator 17.0.0, SVG Export Plug-In . SVG Version: 6.00 Build 0)  -->
<!DOCTYPE svg PUBLIC "-//W3C//DTD SVG 1.1//EN" "http://www.w3.org/Graphics/SVG/1.1/DTD/svg11.dtd">
<svg version="1.1" id="Layer_1" xmlns="http://www.w3.org/2000/svg" xmlns:xlink="http://www.w3.org/1999/xlink" x="0px" y="0px"
	 width="563.636px" height="201.299px" viewBox="0 0 563.636 201.299" enable-background="new 0 0 563.636 201.299"
	 xml:space="preserve">
<g>
	<g>
		<g>
			<path fill="#FFFFFF" d="M152.26,133.528l0.027-2.15c0,0,17.02-7.849,33.932-14.849c7.476-3.094,7.289-7.891,7.192-10.487
				c-0.345-9.559-0.753-13.827-2.814-19.034c-2.228-5.633-6.737-9.61-12.587-13.016c-5.768-3.395-13.602-4.62-22.536-4.62
				c-7.349,0-13.837,1.423-19.448,4.268c-5.611,2.767-9.721,6.876-12.176,12.17c-2.452,5.308-3.72,12.497-3.72,21.669v30.599
				c0,2.775,0.073,5.298,0.214,7.597c3.535-1.033,7.169-2.167,10.909-3.421C136.846,140.375,144.037,137.231,152.26,133.528z
				 M152.055,102.083c0-5.294,0.312-10.649,0.95-11.91c0.556-1.188,1.899-1.823,3.871-1.823c2.134,0,3.64,0.794,4.661,2.297
				c0.95,1.498,1.424,7.089,1.424,12.545c0,4.745-0.391,8.382-1.178,10.909c-0.874,2.535-4.12,4.669-9.729,6.413V102.083z"/>
			<path fill="#FFFFFF" d="M127.724,167.167c5.774,6.727,16.444,10.915,29.968,10.915c13.912,0,22.767-3.953,28.771-11.861
				c3.012-3.954,4.908-7.673,5.695-11.15c0.873-3.478,1.184-3.574,1.105-9.107l-28.613,0.252c0,5.218-0.636,8.778-1.979,10.595
				c-1.346,1.816-3.162,2.683-5.618,2.683c-1.972,0-3.239-0.704-3.946-2.051c-0.719-1.344-1.029-4.427-1.029-9.172l0.011-0.908
				c-9.39,3.799-19.19,7.401-29.715,10.411C123.533,161.126,125.311,164.291,127.724,167.167z"/>
			<path fill="#FFFFFF" d="M49.196,165.584l1.762,10.6h45.693l2.005-13.031C83.875,165.627,67.602,166.71,49.196,165.584z"/>
			<path fill="#FFFFFF" d="M100.58,150.645l15.762-102.463H81.236l-7.438,81.435l-9.007-81.435H29.686l17.697,106.485
				C56.553,155.561,74.834,156.048,100.58,150.645z"/>
			<path fill="#FFFFFF" d="M236.591,93.323c0.56-1.816,1.979-2.763,4.269-2.763c2.134,0,3.477,0.788,3.953,2.373
				c0.41,1.371,0.648,4.887,0.705,10.48c0.617-0.014,1.24-0.042,1.85-0.042c11.366,0.017,21.292,0.818,30.179,2.19v-2.908
				c0-9.169-0.477-15.733-1.5-19.604c-1.031-3.954-3.246-7.193-6.719-9.811c-3.481-2.6-7.991-3.867-13.447-3.867
				c-8.778,0-15.257,3.633-19.684,7.745l-0.156-5.929l-32.177,0.086v40.751c10.764-3.657,21.603-6.55,31.89-7.87
				C235.841,98.436,236.134,94.836,236.591,93.323z"/>
			<path fill="#FFFFFF" d="M245.543,117.523l0.061,58.661h31.943v-56.74c-3.963-0.598-8.222-1.116-12.847-1.541
				C258.035,117.292,251.676,117.202,245.543,117.523z"/>
			<path fill="#FFFFFF" d="M203.864,176.184h31.938l-0.063-57.777c-11.17,1.43-21.644,4.194-31.875,7.714V176.184z"/>
			<path fill="#FFFFFF" d="M288.538,176.184h32.889l-0.073-42.712c-9.25-4.737-19.003-8.976-32.914-12.029L288.538,176.184z"/>
			<path fill="#FFFFFF" d="M321.272,86.351h-32.897l0.039,21.275c12.764,2.908,23.26,7.063,32.914,11.693L321.272,86.351z"/>
			<path fill="#FFFFFF" d="M360.865,139.193c0.191-2.172,0.507-3.996,0.961-5.446c0.877-2.531,4.116-4.658,9.729-6.402v15.429
				c9.969,2.829,20.818,4.664,31.938,5.9v-25.145c0-17.318-0.55-28.779-1.661-34.312c-1.105-5.619-4.424-10.284-9.883-14.079
				c-5.457-3.864-13.596-5.767-24.429-5.767c-9.017,0-16.364,1.657-21.977,5.062c-5.611,3.397-9.413,7.272-11.312,11.699
				c-1.816,4.344-2.767,10.595-2.767,18.737v4.051l29.184-0.027v-7.822c0.072-6.243,0.549-10.038,1.261-11.223
				c0.712-1.271,2.217-1.899,4.35-1.899c1.893,0,3.24,0.867,4.033,2.527c0.86,1.661,1.262,5.222,1.262,10.678
				c0,4.345-0.401,7.272-1.105,8.688c-0.711,1.43-6.323,4.195-16.846,8.312c-8.559,3.309-14.346,6.267-17.311,8.854
				c6.051,3.236,12.074,6.496,18.485,9.557C356.744,137.503,358.779,138.374,360.865,139.193z"/>
			<path fill="#FFFFFF" d="M370.605,157.677c-0.556,1.195-1.899,1.816-3.874,1.816c-2.139,0-3.637-0.79-4.666-2.289
				c-0.485-0.766-0.844-2.602-1.078-4.939c-12.102-4.312-21.039-8.909-29.3-13.32c-0.145,1.6-0.222,3.337-0.222,5.221v8.605
				c0,10.602,2.376,17.328,7.121,20.167c4.744,2.845,9.88,4.278,15.494,4.278c4.268,0,7.904-0.802,10.912-2.376
				c3.002-1.585,5.457-1.112,7.429,1.344h31.072V160.01c-13.161-0.941-24.617-2.337-32.404-4.477
				C370.955,156.541,370.795,157.296,370.605,157.677z"/>
			<path fill="#FFFFFF" d="M497.339,176.184h23.251c-5.495-4.269-13.029-8.338-23.237-10.96L497.339,176.184z"/>
			<path fill="#FFFFFF" d="M414.488,176.184h30.989l0.016-14.426c-10.449-0.238-21.022-0.562-31.005-1.077V176.184z"/>
			<path fill="#FFFFFF" d="M445.554,106.372c0-5.062,0.083-8.384,0.162-9.89c0.076-1.571,0.632-2.915,1.654-3.951
				c1.028-1.104,2.217-1.653,3.64-1.653c2.293,0,3.64,1.021,4.116,3.083c0.55,2.055,0.783,8.216,0.783,18.499l-0.044,39.134
				c11.438,0.355,22.033,0.738,30.988,1.666l0.05-42.54c0-9.017,0.317-14.548,0.945-16.683c0.715-2.138,2.138-3.159,4.435-3.159
				c2.21,0,3.633,1.104,4.189,3.239c0.632,2.134,0.95,7.666,0.95,16.603l-0.056,44.065c4.505,0.904,8.278,2.092,11.133,3.68
				c9.498,5.276,15.678,10.116,19.832,17.102v-73.938c0-8.616-0.473-14.784-1.498-18.579c-1.029-3.878-3.322-7.117-6.879-9.728
				c-3.561-2.604-7.987-3.95-13.443-3.95c-8.219,0-14.701,3.712-19.684,8.851c-5.301-5.93-12.256-8.851-20.796-8.851
				c-8.772,0-15.415,3.712-19.922,8.851l-0.238-7.034l-31.383,0.086v78.434c10.443,0.823,20.945,1.24,31.017,1.565L445.554,106.372z
				"/>
			<path fill="#FFFFFF" d="M455.854,161.971l-0.016,14.213h30.989l0.015-12.974c-3.832-0.505-7.952-0.825-12.398-0.909
				C468.508,162.194,462.252,162.091,455.854,161.971z"/>
			<path fill="#FFFFFF" d="M304.454,76.385c9.186,0,16.627-7.442,16.627-16.628c0-9.179-7.441-16.627-16.627-16.627
				c-9.186,0-16.628,7.448-16.628,16.627C287.826,68.943,295.269,76.385,304.454,76.385z M304.454,54.132
				c3.111,0,5.636,2.514,5.636,5.625c0,3.111-2.524,5.636-5.636,5.636c-3.104,0-5.626-2.524-5.626-5.636
				C298.828,56.646,301.35,54.132,304.454,54.132z"/>
			<path fill="#FFFFFF" d="M326.506,54.132h5.284c0-11.99-9.711-21.711-21.7-21.711v5.294
				C319.158,37.715,326.506,45.064,326.506,54.132z"/>
			<path fill="#FFFFFF" d="M339.08,54.132h5.155c0-18.865-15.284-34.149-34.145-34.149v5.152
				C326.099,25.135,339.08,38.122,339.08,54.132z"/>
		</g>
	</g>
</g>
</svg>
